<?xml version="1.0" encoding="UTF-8" standalone="no"?>
<!DOCTYPE svg PUBLIC "-//W3C//DTD SVG 1.1//EN" "http://www.w3.org/Graphics/SVG/1.1/DTD/svg11.dtd">
<svg width="100%" height="100%" viewBox="0 0 313 274" version="1.1" xmlns="http://www.w3.org/2000/svg" xmlns:xlink="http://www.w3.org/1999/xlink" xml:space="preserve" xmlns:serif="http://www.serif.com/" style="fill-rule:evenodd;clip-rule:evenodd;stroke-linecap:round;stroke-linejoin:round;stroke-miterlimit:1.5;">
    <g transform="matrix(1.46076,0.169839,-0.314911,2.7085,64.5294,-388.096)">
        <path d="M125.795,224.596C179.667,224.555 223.404,234.758 223.404,247.275C223.404,259.792 179.667,269.955 125.795,269.955C71.922,269.955 27.824,259.787 28.185,247.275C28.363,241.096 47.171,232.327 54.669,230.982C69.997,228.233 98.993,224.616 125.795,224.596Z" style="fill:rgb(0,159,255);stroke:black;stroke-width:1.05px;"/>
    </g>
    <g transform="matrix(0.770538,0,0,1.0926,34.0838,-57.0733)">
        <path d="M129.374,257.323C157.916,257.323 187.546,267.254 187.546,279.863C187.546,292.472 152.876,307.73 121.204,305.736C92.775,303.947 79.57,294.988 79.57,282.379C79.57,269.769 100.832,257.323 129.374,257.323Z" style="fill:rgb(0,159,255);stroke:black;stroke-width:2.43px;"/>
    </g>
    <g id="Layer-6" serif:id="Layer 6">
        <path d="M45.062,209.36C42.767,215.495 41.31,228.022 35.88,233.899C30.449,239.775 32.193,239.477 26.909,240.228C21.625,240.98 14.828,237.073 14.744,236.904C14.744,236.904 21.15,245.76 27.598,250.619C34.047,255.479 39.956,259.416 44.151,259.823C48.99,260.293 50.68,256.25 60.208,251.932C70.898,247.088 75.456,246.133 81.539,245.123C87.622,244.113 95.395,243.845 95.395,243.845C111.116,240.898 169.463,249.669 170.415,250.622C171.366,251.575 176.64,255.383 183.177,258.751C189.715,262.118 196.547,262.063 209.694,261.507C222.841,260.95 223.46,259.605 228.874,257.999C234.288,256.393 235.609,256.238 243.221,252.013C250.833,247.788 246.906,249.658 255.327,244.896C260.84,241.778 271.096,233.337 269.286,234.658C268.745,235.053 263.487,236.715 255.696,237.87C233.134,241.214 255.467,190.996 255.743,162.491C256.019,133.985 254.019,124.966 253.632,113.634"/>
    </g>
    <g id="Layer-3" serif:id="Layer 3">
        <path d="M166.509,114.393C166.538,108.445 165.815,103.248 167.338,97.497C170.272,86.417 175.304,75.341 179.658,64.738C153.33,41.742 122.375,22.062 87.295,34.569C75.621,38.73 65.795,46.756 56.035,54.393C51.114,58.245 47.925,64.286 46.006,70.233C44.153,75.975 46.78,90.852 45.11,96.65C42.477,105.792 34.856,102.784 29.829,110.861C28.306,113.309 26.39,117.136 25.402,119.844C24.715,121.723 23.059,122.307 23.547,124.806C24.036,127.305 25.208,127.174 26.62,128.218C24.125,129.966 25.563,136.472 24.009,142.169C17.999,164.192 24.84,176.205 28.609,187.362C31.463,195.809 34.042,199.869 40.467,206.051C56.668,221.64 74.532,230.437 96.534,230.367C104.961,230.34 111.52,226.835 119.581,223.541C131.878,218.516 143.165,215.685 152.596,207.331C153.986,206.1 157.207,204.947 158.535,203.589C161.487,200.568 162.464,199.001 164.999,195.58C168.758,190.507 170.887,188.561 173.412,182.829C176.826,175.076 175.711,168.002 179.906,160.643C183.643,154.088 191.327,157.614 196.485,152.107C202.43,145.76 206.795,130.411 205.064,123.779C201.952,111.854 197.174,103.107 185.31,103.801C173.446,104.496 172.615,111.35 166.509,114.393Z" style="fill:rgb(237,163,118);"/>
        <path d="M140.085,210.7C149.986,210.7 167.213,160.521 179.717,157.486C183.926,156.464 179.925,171.347 187.144,187.675C190.72,195.765 194.435,200.93 194.435,203.961C194.435,203.961 182.895,222.427 179.78,230.723C177.077,237.921 172.958,242.248 170.415,249.5C168.034,256.293 151.105,269.769 134.661,269.769C118.217,269.769 102.167,266.152 102.167,250.622L106.03,231.681C106.03,216.151 140.085,210.7 140.085,210.7Z" style="fill:rgb(237,163,118);stroke:black;stroke-width:2.27px;stroke-miterlimit:4;"/>
        <path d="M97.001,229.403C105.128,230.942 119.73,226.259 128.864,223.564C142.156,219.643 146.769,217.616 156.198,209.179C167.103,199.422 166.006,200.226 174.476,188.843C174.348,186.859 178.866,176.007 178.904,173.927L184.067,145.14C184.067,145.14 187.5,139.184 170.642,154.496" style="fill:rgb(237,163,118);"/>
    </g>
    <g id="Layer-4" serif:id="Layer 4">
        <path d="M72.202,160.813C68.406,162.251 57.873,163.491 49.432,160.78C45.488,159.514 38.558,157.285 36.111,151.041C34.996,148.196 36.016,138.617 39.868,134.153C41.679,132.056 47.682,126.524 55.722,127.788C60.455,128.532 71.138,130.954 75.544,137.38C78.172,141.214 82.16,147.96 79.881,153.793C78.197,158.1 75.531,159.552 72.202,160.813Z" style="fill:rgb(220,138,97);"/>
        <path d="M23.545,91.542C23.645,91.269 21.887,91.507 21.558,91.214C21.08,90.788 20.253,90.748 19.901,88.998C19.389,86.449 21.775,86.542 20.61,84.412C20.152,83.576 18.095,82.709 16.963,84.716C16.403,85.709 16.084,87.199 17.199,89.245C18.201,91.085 19.016,91.476 20.023,92.033C21.642,92.928 23.445,91.814 23.545,91.542Z"/>
        <path d="M22.311,92.774C22.229,92.552 20.94,93.626 20.496,93.619C19.85,93.608 18.687,94.021 17.348,93.126C15.396,91.822 16.371,90.768 15.128,90.494C13.886,90.221 13.123,90.411 12.789,91.765C12.569,92.658 13.622,94.027 15.762,94.702C17.685,95.31 18.584,95.122 19.739,94.934C21.596,94.633 22.394,92.995 22.311,92.774Z"/>
        <path d="M20.405,94.755C20.204,94.617 19.897,95.925 19.555,96.088C19.057,96.324 18.498,97.359 16.918,97.184C14.616,96.929 15.67,94.799 13.533,95.11C12.695,95.233 12.176,96.768 13.546,98.061C14.223,98.7 14.582,99.006 16.634,98.709C18.477,98.443 19.043,97.959 19.804,97.378C21.028,96.444 20.607,94.892 20.405,94.755Z"/>
        <path d="M133.431,110.628C133.514,109.954 139.485,112.95 143.001,109.092C143.456,108.593 144.054,107.564 144.275,107.056C145.223,104.87 142.819,104.591 144.313,102.241C145.806,99.891 148.535,101.89 149.145,103.013C149.755,104.137 149.112,107.109 146.71,109.285C143.757,111.96 138.14,112.165 137.496,111.967C135.616,111.389 133.348,111.301 133.431,110.628Z"/>
        <path d="M138.878,114.359C139.319,114.072 140.309,117.406 144.602,118.298C144.947,118.37 147.064,118.547 147.966,118.215C148.509,118.015 148.842,117.293 149.694,117.159C151.961,116.802 151.965,118.691 151.681,119.572C151.397,120.453 150.397,121.041 147.682,120.824C144.344,120.558 140.831,117.644 140.557,117.201C139.756,115.907 138.437,114.647 138.878,114.359Z"/>
        <path d="M135.705,112.083C136.03,111.628 138.869,113.946 143.942,114.135C144.581,114.159 146.95,113.407 147.339,113.11C149.011,111.832 146.484,110.011 148.88,109.111C151.277,108.211 152.187,110.911 151.834,111.716C151.481,112.522 151.276,114.111 148.286,114.963C144.608,116.01 139.422,114.534 138.908,114.207C137.411,113.254 135.38,112.537 135.705,112.083Z"/>
        <path d="M101.876,143.254C101.944,143.355 104.58,143.027 106.978,143.659C109.663,144.367 109.79,145.091 110.554,145.306C111.424,145.552 112.097,145.374 112.487,145.116C112.877,144.858 111.98,144.228 111.151,143.715C110.336,143.21 108.531,142.687 107.066,142.621C105.601,142.556 101.814,143.161 101.876,143.254Z" style="fill:rgb(220,138,97);"/>
        <path d="M38.624,129.805C38.56,129.834 38.62,129.8 37.417,129.476C36.071,129.114 35.853,129.523 35.129,129.295C34.699,129.159 34.565,128.943 34.653,128.735C34.908,128.132 35.098,128.329 35.722,128.319C36.347,128.31 37.125,128.631 37.747,128.976C38.368,129.321 38.682,129.778 38.624,129.805Z" style="fill:rgb(220,138,97);"/>
    </g>
    <g id="Layer-5" serif:id="Layer 5">
        <path d="M179.661,64.949C179.661,64.949 162.494,49.003 148.409,42.441C134.324,35.879 115.862,26.398 90.63,34.12C75.637,38.708 70.845,43.415 59.941,51.782C48.339,60.685 47.177,67.44 45.588,74.529C43.999,81.617 47.145,81.34 45.988,92.739C44.832,104.138 32.109,106.133 32.109,106.133L25.809,120.605C25.809,120.605 24.604,121.58 24.903,124.93C25.202,128.279 26.964,128.367 26.964,128.367C26.964,128.367 23.634,143.932 22.789,153.294C21.944,162.656 26.791,185.767 29.187,189.205C30.128,190.555 31.184,197.021 43.95,209.368C56.716,221.714 66.667,224.37 67.89,224.65C68.631,224.82 83.176,230.449 96.765,230.771C107.265,231.02 120.962,225.875 139.181,214.852C157.401,203.829 169.055,192.678 174.479,183.912C179.503,175.793 180.385,160.863 180.385,160.863C180.385,160.863 181.478,157.314 189.65,155.241C195.886,153.658 198.426,150.336 201.241,145.839C204.056,141.341 207.982,124.001 203.162,116.466C198.342,108.93 194.65,104.98 185.52,104.537C176.391,104.093 167.847,114.33 167.847,114.33L167.282,100.125L170.727,86.606L175.916,74.565L179.661,64.949Z" style="fill:none;stroke:black;stroke-width:2.27px;stroke-miterlimit:4;"/>
        <path d="M176.479,190.084C175.129,190.417 165.348,193.498 159.17,196.434C157.43,197.261 157.896,199.527 155.802,201.72C154.264,203.332 150.579,204.886 148.368,206.207C143.365,209.198 148.55,208.639 138.407,212.832C135.789,213.915 127.909,216.942 129.193,217.617C130.477,218.293 132.833,217.731 139.897,216.407C147.211,215.036 147.006,213.597 151.646,210.239C152.581,209.561 158.317,205.528 159.185,204.862C162.402,202.393 165.605,200.154 166.198,198.041C167.151,194.642 177.829,189.75 176.479,190.084Z" style="fill:rgb(237,163,118);"/>
    </g>
    <g id="Layer-2" serif:id="Layer 2">
        <path d="M92.747,136.314C92.554,135.955 88.243,128.946 88.058,121.383C87.77,109.575 93.62,95.72 111.018,93.521C139.56,89.913 140.878,117.663 140.852,121.129C140.802,127.739 138.178,132.737 137.033,134.425C134.335,138.402 130.174,141.201 129.803,141.178C129.559,141.162 122.445,134.836 113.178,133.631C103.963,132.433 92.796,136.405 92.747,136.314Z" style="fill:white;stroke:black;stroke-width:2.27px;stroke-miterlimit:4;"/>
        <path d="M49.472,123.533C60.938,118.49 64.79,101.325 59.919,90.518C56.516,82.967 49.58,80.029 40.262,80.76C29.424,81.611 20.701,91.637 19.242,102.57C18.389,108.962 19.072,116.537 25.77,120.459C26.249,120.739 29.203,118.77 33.999,119.522C39.886,120.446 47.893,124.048 49.472,123.533Z" style="fill:white;stroke:black;stroke-width:2.27px;stroke-miterlimit:4;"/>
        <path d="M64.283,117.503C63.993,117.503 63.129,121.186 62.968,121.596C62.527,122.713 61.839,123.969 60.672,125.028C59.553,126.043 58.964,126.307 56.741,127.285C56.168,127.537 55.927,128.18 56.179,128.753C56.431,129.327 58.235,128.917 58.809,128.665C61.356,127.544 61.564,127.278 62.741,125.722C63.474,124.754 63.984,123.665 64.159,122.528C64.44,120.7 64.574,117.503 64.283,117.503Z"/>
        <path d="M53.739,126.927C53.647,126.929 52.711,126.934 52.02,126.989C50.873,127.081 49.943,127.477 48.86,127.737C48.118,127.915 42.184,130.944 42.427,131.521C42.564,131.845 45.728,129.69 50.488,129.077C55.248,128.464 59.067,129.114 59.522,129.198C61.353,129.538 61.905,129.629 62.964,129.811C63.87,129.968 66.437,131.164 66.855,130.697C67.274,130.23 63.611,128.623 62.52,128.319C59.359,127.44 61.694,127.774 59.489,127.364C57.483,126.992 55.435,126.892 53.739,126.927Z"/>
        <path d="M60.635,157.766C62.053,155.858 62.405,155.248 64.49,153.971C65.77,153.186 66.732,152.7 68.748,152.47C70.763,152.24 71.903,152.717 72.861,153.564C74.318,154.852 74.28,155.104 74.599,156.714C74.857,158.017 73.848,159.005 72.541,158.674C71.744,158.473 70.73,155.85 66.07,156.17C64.349,156.288 60.156,158.411 60.635,157.766Z"/>
        <path d="M46.081,155.051C46.901,155.791 44.278,152.855 44.114,152.727C42.865,151.755 39.619,149.172 37.846,150.514C37.115,151.067 37.828,153.045 38.549,153.294C41.113,154.182 39.442,149.048 46.081,155.051Z"/>
        <path d="M111.469,68.362C103.562,68.159 109.493,55.796 109.493,55.796C109.493,55.796 112.661,54.794 117.158,54.6C124.187,54.298 132.56,57.586 137.834,62.38C140.541,64.841 143.129,67.699 144.687,70.815C146.455,74.351 148.702,78.345 146.844,81.998C146.713,82.256 145.36,85.015 145.233,84.889C144.672,84.328 141.215,80.874 140.727,80.142C139.714,78.622 136.57,76.16 135.046,75.144C129.374,71.362 125.368,70.054 119.172,68.814C118.277,68.635 114.193,68.432 111.469,68.362Z" style="stroke:black;stroke-width:2.27px;stroke-miterlimit:4;"/>
        <path d="M58.21,66.567C64.915,68.394 67.598,65.649 68.878,63.143C70.158,60.637 71.737,56.637 68.278,54.66C66.201,53.474 62.409,52.962 59.325,52.713C54.933,52.357 50.872,52.57 46.483,53.234C42.172,53.886 40.348,54.503 36.831,56.896C34.746,58.315 33.305,60.141 32.175,62.973C31.045,65.805 32.019,66.999 32.383,67.242C33.257,67.824 37.915,64.993 39.265,64.731C44.737,63.671 57.602,66.401 58.21,66.567Z" style="stroke:black;stroke-width:2.27px;stroke-miterlimit:4;"/>
    </g>
    <g id="Layer-7" serif:id="Layer 7">
        <path d="M107.618,67.387C107.792,65.898 107.201,62.301 108.187,59.596C109.338,56.44 112.076,54.252 112.076,54.252C112.076,54.252 110.604,56.598 109.078,59.947" style="fill:rgb(206,129,82);fill-opacity:0.33;"/>
        <path d="M109.082,68.215C109.375,66.964 108.828,62.847 110.452,59.931C111.888,57.354 118.904,54.221 118.904,54.221C118.904,54.221 111.262,60.291 110.386,63.078" style="fill:rgb(206,129,82);fill-opacity:0.33;"/>
        <path d="M110.059,68.481C110.284,67.521 110.892,66.923 112.151,65.162C113.982,62.603 119.288,58.387 119.288,58.387C119.288,58.387 116.343,62.018 113.464,65.366" style="fill:rgb(206,129,82);fill-opacity:0.33;"/>
        <path d="M114.98,66.348C115.166,65.556 115.064,65.64 116.33,64.055C117.028,63.183 118.811,60.795 119.71,59.848C122.031,57.403 125.548,55.069 125.548,55.069C125.548,55.069 125.363,59.739 122.508,61.353" style="fill:rgb(206,129,82);fill-opacity:0.33;"/>
        <path d="M135.129,75.463C136.233,75.168 146.681,76.59 146.681,76.59C146.681,76.59 145.985,76.674 144.316,76.902" style="fill:rgb(206,129,82);fill-opacity:0.33;"/>
        <path d="M136.416,76.12C137.018,76.148 141.313,76.901 142.305,77.332C145.617,78.772 146.8,81.316 146.8,81.316C146.8,81.316 145.442,80.228 142.278,78.633" style="fill:rgb(206,129,82);fill-opacity:0.33;"/>
        <path d="M64.491,66.269C65.359,63.146 62.874,52.595 62.874,52.595C62.874,52.595 66.112,60.787 65.201,64.526" style="fill:rgb(206,129,82);fill-opacity:0.33;"/>
        <path d="M63.941,67.847C64.131,66.78 62.756,59.56 61.936,56.224C60.943,52.181 60.447,52.02 60.447,52.02C60.447,52.02 62.013,59.09 62.251,62.221" style="fill:rgb(206,129,82);fill-opacity:0.33;"/>
        <path d="M61.008,60.03C60.4,59.707 60.011,57.003 58.179,55.282C56.207,53.429 53.335,52.725 53.335,52.725C53.335,52.725 56.112,52.574 59.055,55.424" style="fill:rgb(206,129,82);fill-opacity:0.33;"/>
        <path d="M62.692,66.359C62.468,65.121 61.851,61.687 60.535,59.501C59.34,57.516 57.424,56.709 57.424,56.709C57.424,56.709 59.454,58.856 60.996,61.329" style="fill:rgb(206,129,82);fill-opacity:0.33;"/>
        <path d="M65.294,67.91C66.124,66.43 67.978,62.795 68.516,59.352C68.983,56.359 66.822,53.368 66.822,53.368C66.822,53.368 69.042,57.472 67.323,60.958" style="fill:rgb(206,129,82);fill-opacity:0.33;"/>
        <path d="M68.602,46.497C68.602,46.497 62.535,42.454 68.298,34.269C74.061,26.084 78.147,21.433 91.655,13.756C105.163,6.08 108.719,6.515 122.332,3.563C135.945,0.612 135.174,1.58 146.107,1.95C157.039,2.32 156.366,1.962 166.061,5.043C175.756,8.124 175.645,9.463 184.886,14.274C194.127,19.085 195.003,18.677 203.025,24.286C211.046,29.894 220.095,40.997 220.095,40.997C220.095,40.997 218.974,45.888 221.251,41.071C223.527,36.254 225.262,34.091 230.787,29.026C236.312,23.962 246.396,21.145 255.892,21.373C265.387,21.601 271.885,20.907 287.369,34.01C302.852,47.112 300.576,72.053 300.824,72.467C301.072,72.88 300.51,90.197 294.948,100.951C289.386,111.704 287.31,111.373 283.523,125.686C279.735,139.998 293.671,138.062 293.503,138.144C293.334,138.225 290.523,143.777 283.204,144.113C275.886,144.448 273.524,145.193 269.34,141.073C265.155,136.952 263.718,136.649 262.739,127.249C261.76,117.85 264.671,117.387 262.209,107.405C259.747,97.423 256.059,96.875 252.382,93.416C248.705,89.957 243.627,81.312 243.627,81.312C243.627,81.312 245.779,86.292 247.93,92.972C250.081,99.652 252.317,107.784 252.232,108.032C252.148,108.28 251.549,121.519 251.297,121.932C251.044,122.346 248.853,132.856 248.685,133.435C248.516,134.014 241.759,151.425 234.519,163.82C227.279,176.216 226.667,175.158 219.724,183.018C212.781,190.878 212.976,189.835 206.748,195.26C200.521,200.686 196.503,205.733 194.814,204.721C192.175,203.141 188.408,196.536 184.388,186.279C180.369,176.022 179.698,167.788 182.334,160.21C184.97,152.632 194.581,154.183 194.497,154.097C194.413,154.011 205.221,142.355 205.055,132.065C204.889,121.776 207.22,118.249 200.276,111.36C193.331,104.472 191.638,103.748 183.751,104.698C175.863,105.648 168.853,114.171 168.853,114.171C168.853,114.171 165.859,109.736 168.738,97.532C171.616,85.328 180.368,65.355 180.368,65.355C180.368,65.355 156.7,46.052 156.948,45.968C157.197,45.884 125.058,32.926 125.472,32.926C125.472,32.926 120.833,30.789 109.297,30.671C97.762,30.554 94.217,33.591 94.217,33.591C94.217,33.591 89.018,33.852 81.247,37.319C73.476,40.786 68.602,46.497 68.602,46.497Z"/>
    </g>
    <g id="Layer-8" serif:id="Layer 8">
        <path d="M67.786,46.556C69.181,42.467 66.282,38.722 73.365,30.2C80.448,21.678 92.828,16.313 92.575,16.395C92.323,16.478 105.902,6.104 123.125,2.288C140.348,-1.528 148.662,-0.434 166.825,4.566C184.987,9.566 182.08,9.564 194.534,17.626C206.988,25.689 216.894,36.652 216.641,36.818C216.389,36.983 220.838,39.988 226.952,50.025C233.067,60.062 234.693,63.059 241.098,76.966C247.504,90.872 250.238,91.904 252.575,105.652C254.912,119.4 252.892,119.527 250.445,131.956C247.998,144.385 248.257,144.714 242.786,155.368C237.315,166.021 228.646,174.739 228.562,174.57C228.477,174.402 224.557,181.525 216.694,188.805C208.832,196.084 174.329,251.889 174.163,251.913C170.512,252.436 164.026,240.336 164.927,229.554C167.14,203.048 170.642,202.294 176.927,183.271C180.817,171.498 180.439,159.751 180.391,159.131C180.267,157.51 186.832,155.828 191.802,152.837C196.773,149.846 197.805,153.339 200.976,145.238C204.148,137.137 207.556,132.004 206.193,122.447C204.831,112.89 196.641,108.836 196.806,108.752C196.972,108.668 190.244,102.446 182.46,104.596C174.675,106.747 168.261,114.731 168.205,114.057C168.15,113.384 165.519,107.08 167.359,97.477C169.2,87.873 172.341,84.005 175.568,75.642C178.795,67.278 180.191,66.562 179.534,65.078C178.876,63.595 163.096,52.109 163.426,51.941C163.757,51.773 149.801,40.596 131.328,36.46C112.854,32.325 111.655,27.24 89.534,35.398"/>
        <path d="M226.559,43.85C234.403,51.41 231.463,50.369 236.474,56.506C239.166,59.803 240.502,65.618 242.99,71.05C247.64,81.206 245.16,84.472 245.16,84.472L234.428,62.177C234.428,62.177 223.038,48.059 220.697,42.62C219.524,39.895 220.93,38.425 226.559,43.85Z" style="fill:rgb(0,159,255);"/>
    </g>
    <g id="Layer-9" serif:id="Layer 9">
        <path d="M107.16,230.412C106.497,230.868 127.285,223.61 141.731,214.533C156.178,205.457 155.62,205.24 166.028,195.539C176.437,185.839 178.595,176.975 178.595,176.975C178.595,176.975 169.374,212.51 155.188,222.697C141.002,232.884 137.003,238.066 118.942,233.395" style="fill:rgb(220,138,97);"/>
    </g>
</svg>
